<?xml version="1.0" standalone="no"?>
<!DOCTYPE svg PUBLIC "-//W3C//DTD SVG 20010904//EN"
 "http://www.w3.org/TR/2001/REC-SVG-20010904/DTD/svg10.dtd">
<svg version="1.0" xmlns="http://www.w3.org/2000/svg"
 width="512.000000pt" height="512.000000pt" viewBox="0 0 512.000000 512.000000"
 preserveAspectRatio="xMidYMid meet">
<metadata>
Created by potrace 1.11, written by Peter Selinger 2001-2013
</metadata>
<g transform="translate(0.000000,512.000000) scale(0.100000,-0.100000)"
fill="#000000" stroke="none">
<path d="M2270 5029 c-335 -38 -697 -163 -991 -342 -633 -384 -1048 -998
-1175 -1737 -21 -127 -30 -503 -15 -652 90 -873 650 -1642 1461 -2008 210 -94
505 -175 732 -199 123 -14 435 -14 553 -1 1066 118 1951 929 2160 1978 36 181
45 282 45 492 0 285 -32 499 -111 747 -301 939 -1124 1618 -2091 1722 -112 13
-458 12 -568 0z m-130 -1310 c111 -26 249 -93 344 -169 l76 -60 76 60 c272
216 638 255 949 100 224 -111 383 -302 447 -536 33 -121 30 -324 -6 -459 -56
-210 -160 -378 -446 -720 -215 -257 -353 -399 -535 -553 -163 -137 -295 -213
-416 -238 -60 -12 -78 -12 -139 0 -236 50 -558 320 -969 814 -271 326 -373
493 -427 697 -36 136 -39 338 -6 459 64 234 224 426 447 536 199 98 387 119
605 69z"/>
</g>
</svg>
